<svg xmlns="http://www.w3.org/2000/svg" viewBox="0 0 47.48 47.48" id="Dashboard">
  <path fill="#d85b53" d="M23.74 34.6a1.65 1.65 0 0 0 1.48-.91 1.63 1.63 0 0 0 .18-.75 1.67 1.67 0 1 0-3.33 0 1.63 1.63 0 0 0 .18.75 1.67 1.67 0 0 0 1.49.91zm2.92.55a3.66 3.66 0 0 1-5.85 0h-6.45a14.69 14.69 0 0 0 18.75 0z" class="color231f20 svgShape"></path>
  <path fill="#d85b53" d="M36.09 22.8h2.33a14.67 14.67 0 0 0-3.59-8.67l-1.65 1.65a1 1 0 0 1-1.42 0 1 1 0 0 1 0-1.42l1.65-1.65a14.67 14.67 0 0 0-8.67-3.59v2.34a1 1 0 0 1-2 0V9.12a14.59 14.59 0 0 0-8.66 3.6l1.65 1.64a1 1 0 0 1-.71 1.72 1 1 0 0 1-.71-.3l-1.65-1.64a14.59 14.59 0 0 0-3.6 8.66h2.34a1 1 0 0 1 0 2H9.06a14.7 14.7 0 0 0 3.31 8.33h7.71v-.2a3.68 3.68 0 0 1 3.68-3.68h.39l3.76-9.35a1.003 1.003 0 1 1 1.86.75l-3.8 9.38a3.71 3.71 0 0 1 1.42 2.91v.2h7.71a14.56 14.56 0 0 0 3.31-8.33h-2.33a1 1 0 1 1 0-2Z" class="color231f20 svgShape"></path>
  <path fill="#d85b53" d="M23.74 0A23.74 23.74 0 0 0-.03 23.74a23.74 23.74 0 0 0 23.74 23.74 23.74 23.74 0 0 0 23.74-23.74A23.74 23.74 0 0 0 23.74 0Zm12.69 34.69a1.12 1.12 0 0 1-.18.2 16.69 16.69 0 0 1-25 0 1.12 1.12 0 0 1-.18-.2 16.68 16.68 0 0 1 .85-22.68 16.71 16.71 0 0 1 23.59 0 16.74 16.74 0 0 1 4.87 11.77 16.71 16.71 0 0 1-3.95 10.91Z" class="color231f20 svgShape"></path>
</svg>
