<svg xmlns="http://www.w3.org/2000/svg" viewBox="0 0 62 62" id="touch">
  <path d="M48.83 29.17A4 4 0 0 0 46 28a3.93 3.93 0 0 0-2.24.69A3.93 3.93 0 0 0 40 26a3.93 3.93 0 0 0-2.24.69A3.93 3.93 0 0 0 34 24a3.91 3.91 0 0 0-2 .56V14a4 4 0 0 0-8 0v9.69a4.31 4.31 0 0 0-2.33-.69h-1.49A2.19 2.19 0 0 0 18 25.18V42a16 16 0 0 0 32 0V32a4 4 0 0 0-1.17-2.83ZM46 30a2 2 0 0 1 2 2v5a2 2 0 0 1-4 0v-5a2 2 0 0 1 2-2Zm-6-2a2 2 0 0 1 2 2v7a2 2 0 0 1-4 0v-7a2 2 0 0 1 2-2Zm-6-2a2 2 0 0 1 2 2v9a2 2 0 0 1-4 0v-9a2 2 0 0 1 2-2Zm0 30a14 14 0 0 1-14-14V25.18a.18.18 0 0 1 .18-.18h1.49A2.33 2.33 0 0 1 24 27.33V37a1 1 0 0 0 2 0V14a2 2 0 0 1 4 0v23a4 4 0 0 0 7 2.62 4 4 0 0 0 6 0A4 4 0 0 0 46 41a3.91 3.91 0 0 0 2-.56V42a14 14 0 0 1-14 14Z" fill="#d85b53" class="color000000 svgShape"></path>
</svg>
